<svg width="247" height="372" viewBox="0 0 247 372" fill="none" xmlns="http://www.w3.org/2000/svg">
<g clip-path="url(#clip0_55_395)">
<path d="M448.86 317.2C448.885 307.744 447.034 298.376 443.416 289.639C439.798 280.903 434.483 272.97 427.78 266.3L182.52 21C169.965 8.48934 153.241 1.04299 135.543 0.083741C117.845 -0.875506 100.413 4.71961 86.5799 15.8C76.8213 8.73901 64.866 5.38615 52.8588 6.34293C40.8515 7.29971 29.578 12.5035 21.0607 21.0208C12.5434 29.5381 7.33961 40.8116 6.38283 52.8189C5.42605 64.8261 8.77891 76.7814 15.8399 86.54C4.7478 100.371 -0.851135 117.809 0.115769 135.512C1.08267 153.215 8.54742 169.939 21.0799 182.48L266.34 427.74C278.885 440.263 295.606 447.724 313.305 448.694C331.005 449.664 348.441 444.077 362.28 433C372.042 440.041 383.993 443.377 395.991 442.411C407.989 441.444 419.251 436.237 427.76 427.723C436.269 419.209 441.47 407.944 442.43 395.946C443.39 383.947 440.047 371.999 433 362.24C443.3 349.492 448.9 333.589 448.86 317.2V317.2ZM170.5 33.06L415.76 278.32C425.03 287.591 430.684 299.869 431.701 312.94C432.719 326.011 429.034 339.016 421.31 349.61L99.2099 27.52C109.809 19.8109 122.809 16.1337 135.876 17.1492C148.943 18.1646 161.219 23.806 170.5 33.06V33.06ZM278.36 415.72L33.0999 170.46C23.8297 161.189 18.1763 148.911 17.1587 135.84C16.1411 122.769 19.8263 109.764 27.5499 99.17L349.65 421.26C339.051 428.969 326.05 432.646 312.984 431.631C299.917 430.615 287.641 424.974 278.36 415.72V415.72ZM415.76 415.72C409.438 422.021 400.876 425.559 391.95 425.559C383.024 425.559 374.462 422.021 368.14 415.72L33.1399 80.72C30.0105 77.5959 27.5271 73.886 25.8315 69.802C24.1359 65.7181 23.2612 61.3402 23.2575 56.9183C23.25 47.9878 26.7904 39.4201 33.0999 33.1C39.4094 26.7799 47.9712 23.2251 56.9017 23.2176C65.8321 23.2101 74.3998 26.7505 80.7199 33.06L415.72 368.06C422.038 374.379 425.591 382.946 425.599 391.882C425.606 400.817 422.068 409.391 415.76 415.72V415.72Z" fill="black" fill-opacity="0.03"/>
<path d="M116.83 32.0001C116.942 32.446 117.141 32.8654 117.415 33.2344C117.69 33.6034 118.034 33.9148 118.429 34.1506C118.823 34.3865 119.261 34.5423 119.716 34.6091C120.171 34.676 120.634 34.6525 121.08 34.5401C125.992 33.2997 131.104 33.0687 136.108 33.861C141.111 34.6534 145.902 36.4527 150.19 39.1501C150.981 39.6346 151.931 39.7857 152.833 39.5701C153.735 39.3544 154.514 38.7898 155 38.0001C155.49 37.2123 155.648 36.262 155.438 35.3582C155.228 34.4543 154.668 33.6709 153.88 33.1801C148.797 29.9818 143.117 27.8488 137.185 26.9102C131.253 25.9717 125.192 26.2472 119.37 27.7201C118.466 27.951 117.69 28.5316 117.214 29.3342C116.738 30.1368 116.599 31.0957 116.83 32.0001Z" fill="black" fill-opacity="0.03"/>
<path d="M374.74 376.71C374.95 375.46 375.2 374.19 375.44 372.91C375.73 371.44 376.02 369.91 376.26 368.43C376.41 367.5 376.52 366.65 376.6 365.92C377.21 360.98 377.2 355.3 372.43 350.53C367.07 345.17 360.38 345.74 354.54 346.71C353.14 346.94 351.72 347.21 350.3 347.48C348.88 347.75 347.57 348 346.23 348.22C339.86 349.22 336.88 348.8 334.43 346.36C331.98 343.92 331.52 340.93 332.57 334.55C332.79 333.22 333.05 331.86 333.31 330.5C333.57 329.14 333.85 327.65 334.09 326.25C335.09 320.4 335.62 313.72 330.26 308.36C324.9 303 318.26 303.58 312.37 304.54C310.98 304.77 309.56 305.04 308.15 305.31C306.74 305.58 305.41 305.84 304.07 306.06C297.69 307.06 294.71 306.64 292.27 304.19C289.83 301.74 289.35 298.77 290.41 292.38C290.63 291.05 290.89 289.69 291.14 288.33C291.39 286.97 291.69 285.48 291.92 284.08C292.92 278.24 293.46 271.56 288.1 266.2C282.74 260.84 276.05 261.41 270.2 262.37C268.81 262.6 267.38 262.87 265.96 263.15C264.54 263.43 263.24 263.67 261.9 263.89C255.52 264.89 252.54 264.46 250.1 262.02C247.66 259.58 247.18 256.59 248.23 250.21C248.45 248.87 248.71 247.51 248.98 246.15C249.25 244.79 249.52 243.3 249.75 241.91C250.75 236.07 251.29 229.38 245.93 224.02C240.57 218.66 233.87 219.23 228.03 220.2C226.63 220.43 225.21 220.7 223.79 220.97C222.37 221.24 221.06 221.49 219.73 221.71C213.35 222.71 210.37 222.29 207.93 219.85C205.49 217.41 205 214.42 206.06 208C206.28 206.66 206.54 205.3 206.8 203.94C207.06 202.58 207.34 201.09 207.57 199.7C208.57 193.85 209.11 187.17 203.75 181.81C198.39 176.45 191.7 177.02 185.85 177.99C184.47 178.21 183.06 178.48 181.64 178.75C180.22 179.02 178.9 179.28 177.55 179.5C171.17 180.55 168.19 180.08 165.75 177.63C163.31 175.18 162.83 172.21 163.88 165.83C164.1 164.49 164.37 163.13 164.63 161.76C164.89 160.39 165.17 158.92 165.4 157.52C166.4 151.68 166.94 145 161.58 139.64C156.22 134.28 149.53 134.85 143.68 135.81C142.28 136.04 140.86 136.31 139.44 136.58C138.02 136.85 136.71 137.1 135.38 137.32C129 138.32 126.02 137.9 123.57 135.46C121.12 133.02 120.65 130.03 121.71 123.65C121.93 122.31 122.19 120.95 122.44 119.65C122.69 118.35 122.99 116.79 123.22 115.39C124.22 109.55 124.76 102.87 119.39 97.5C114.02 92.13 107.39 92.71 101.49 93.68C100.1 93.9 98.6898 94.17 97.2698 94.44C95.8498 94.71 94.5298 94.97 93.1898 95.19C86.8098 96.19 83.8298 95.76 81.3898 93.32C78.9498 90.88 78.4698 87.89 79.5198 81.51C79.7398 80.17 79.9998 78.82 80.2498 77.51C80.4998 76.2 80.7998 74.65 81.0298 73.24C82.0298 67.4 82.5698 60.71 77.1998 55.35C76.8715 55.0217 76.4818 54.7613 76.0528 54.5836C75.6239 54.4059 75.1641 54.3145 74.6998 54.3145C74.2355 54.3145 73.7758 54.4059 73.3468 54.5836C72.9179 54.7613 72.5281 55.0217 72.1998 55.35C71.8715 55.6783 71.6111 56.068 71.4334 56.497C71.2558 56.9259 71.1643 57.3857 71.1643 57.85C71.1643 58.3143 71.2558 58.774 71.4334 59.203C71.6111 59.6319 71.8715 60.0217 72.1998 60.35C74.6498 62.8 75.1198 65.78 74.0698 72.16C73.8498 73.5 73.5898 74.87 73.3298 76.24C73.0698 77.61 72.7898 79.07 72.5598 80.46C71.5598 86.3 71.0198 92.99 76.3898 98.36C81.7598 103.73 88.3898 103.14 94.2798 102.19C95.6798 101.96 97.1098 101.68 98.5298 101.41C99.9498 101.14 101.25 100.89 102.53 100.67C108.91 99.67 111.89 100.09 114.34 102.54C116.79 104.99 117.26 107.97 116.21 114.35C115.99 115.69 115.73 117.06 115.47 118.42C115.21 119.78 114.93 121.26 114.7 122.65C113.7 128.49 113.16 135.18 118.52 140.55C123.88 145.92 130.52 145.33 136.41 144.37C137.81 144.14 139.23 143.87 140.65 143.6C142.07 143.33 143.38 143.08 144.72 142.86C151.1 141.86 154.08 142.28 156.53 144.73C158.98 147.18 159.44 150.15 158.39 156.52C158.17 157.86 157.91 159.22 157.65 160.59C157.39 161.96 157.11 163.43 156.88 164.83C155.88 170.67 155.34 177.36 160.7 182.72C166.06 188.08 172.7 187.51 178.59 186.55C179.99 186.31 181.43 186.04 182.86 185.77C184.29 185.5 185.56 185.25 186.86 185.03C193.25 183.98 196.22 184.45 198.67 186.9C201.12 189.35 201.59 192.32 200.54 198.7C200.32 200.04 200.06 201.4 199.79 202.77C199.52 204.14 199.25 205.61 199.02 207C198.02 212.85 197.48 219.53 202.85 224.9C208.22 230.27 214.85 229.68 220.73 228.72C222.13 228.49 223.55 228.22 224.97 227.95C226.39 227.68 227.7 227.43 229.04 227.21C235.42 226.15 238.4 226.63 240.85 229.07C243.3 231.51 243.76 234.49 242.71 240.87C242.49 242.21 242.23 243.57 241.97 244.93C241.71 246.29 241.43 247.78 241.2 249.18C240.2 255.02 239.65 261.7 245.02 267.07C250.39 272.44 257.02 271.86 262.9 270.89C264.3 270.66 265.72 270.39 267.15 270.12C268.58 269.85 269.87 269.6 271.21 269.38C277.59 268.38 280.57 268.8 283.02 271.24C285.47 273.68 285.93 276.67 284.88 283.04C284.66 284.39 284.4 285.75 284.14 287.12C283.88 288.49 283.6 289.95 283.37 291.35C282.37 297.19 281.83 303.88 287.19 309.24C292.55 314.6 299.19 314.02 305.07 313.06C306.48 312.83 307.9 312.56 309.33 312.29C310.76 312.02 312.05 311.77 313.38 311.55C319.76 310.5 322.74 310.97 325.18 313.41C327.62 315.85 328.1 318.83 327.05 325.21C326.83 326.55 326.57 327.92 326.31 329.28C326.05 330.64 325.76 332.12 325.53 333.51C324.53 339.36 323.99 346.04 329.35 351.41C334.71 356.78 341.35 356.19 347.24 355.23C348.64 355 350.06 354.73 351.48 354.46C352.9 354.19 354.21 353.94 355.55 353.72C361.93 352.66 364.91 353.14 367.35 355.58C369.53 357.76 370.12 360.35 369.51 365.22C369.44 365.89 369.34 366.61 369.21 367.43C369 368.81 368.71 370.27 368.44 371.68C368.17 373.09 367.92 374.35 367.71 375.68C366.71 381.53 366.16 388.22 371.53 393.59C372.193 394.246 373.09 394.613 374.023 394.608C374.956 394.603 375.848 394.228 376.505 393.565C377.161 392.902 377.527 392.005 377.523 391.072C377.518 390.139 377.143 389.246 376.48 388.59C374.16 386.08 373.69 383.1 374.74 376.71Z" fill="black" fill-opacity="0.03"/>
</g>
<defs>
<clipPath id="clip0_55_395">
<rect width="448.86" height="448.79" fill="white"/>
</clipPath>
</defs>
</svg>
