<svg width="441" height="475" viewBox="0 0 441 475" fill="none" xmlns="http://www.w3.org/2000/svg">
<g clip-path="url(#clip0_55_403)">
<path d="M1.06998 88.52L133.38 326.94L149.81 356.53L213 470.44C213.734 471.768 214.81 472.874 216.117 473.645C217.424 474.416 218.913 474.822 220.43 474.822C221.947 474.822 223.436 474.416 224.743 473.645C226.05 472.874 227.126 471.768 227.86 470.44L439.86 88.52C440.86 86.7203 441.172 84.6186 440.738 82.6061C440.304 80.5936 439.153 78.8074 437.5 77.58C436.44 76.79 410.9 57.9 371.38 38.8C334.79 21.1 278.89 0 220.47 0C188.23 0 135.87 6.73 69.55 38.8C30 57.9 4.48998 76.79 3.42998 77.58C1.77701 78.8074 0.626352 80.5936 0.192206 82.6061C-0.24194 84.6186 0.0700089 86.7203 1.06998 88.52ZM170 357.79C177.629 354.909 184.549 350.418 190.288 344.624C196.027 338.83 200.451 331.868 203.259 324.211C206.067 316.555 207.193 308.383 206.562 300.253C205.93 292.122 203.554 284.223 199.597 277.092C195.64 269.961 190.194 263.766 183.629 258.928C177.063 254.09 169.533 250.722 161.551 249.054C153.568 247.386 145.319 247.456 137.366 249.261C129.413 251.065 121.942 254.561 115.46 259.51L47.81 137.7C87 114.23 152.22 75.35 220.47 75.35C288.72 75.35 353.94 114.23 393.13 137.7L220.46 448.8L170 357.79ZM143.37 309.79L123.83 274.57C128.306 270.687 133.592 267.853 139.303 266.273C145.014 264.693 151.006 264.409 156.841 265.439C162.676 266.47 168.207 268.79 173.031 272.231C177.856 275.671 181.851 280.145 184.726 285.326C187.601 290.507 189.283 296.265 189.65 302.179C190.017 308.093 189.058 314.014 186.845 319.511C184.632 325.008 181.22 329.941 176.858 333.951C172.495 337.961 167.293 340.947 161.63 342.69L143.37 309.79ZM19.65 87C42.93 71.24 129.65 17 220.47 17C311.29 17 398 71.2 421.29 87L401.39 122.86C360.63 98.42 293.12 58.35 220.47 58.35C147.82 58.35 80.31 98.42 39.55 122.83L19.65 87Z" fill="black" fill-opacity="0.03"/>
<path d="M212 187.58C212 200.21 215.745 212.557 222.762 223.059C229.779 233.56 239.753 241.746 251.422 246.579C263.091 251.412 275.931 252.677 288.318 250.213C300.706 247.749 312.085 241.667 321.016 232.736C329.947 223.805 336.029 212.426 338.493 200.038C340.957 187.651 339.692 174.811 334.859 163.142C330.026 151.473 321.84 141.499 311.339 134.482C300.837 127.465 288.49 123.72 275.86 123.72C258.929 123.738 242.697 130.473 230.725 142.445C218.753 154.417 212.019 170.649 212 187.58ZM229 187.58C228.998 178.312 231.745 169.251 236.892 161.543C242.04 153.836 249.358 147.828 257.921 144.28C266.483 140.732 275.905 139.802 284.996 141.609C294.086 143.416 302.437 147.878 308.991 154.431C315.546 160.985 320.01 169.334 321.819 178.424C323.628 187.515 322.7 196.937 319.154 205.5C315.608 214.063 309.601 221.382 301.895 226.532C294.189 231.681 285.128 234.43 275.86 234.43C263.438 234.417 251.528 229.477 242.743 220.694C233.958 211.911 229.016 200.002 229 187.58Z" fill="black" fill-opacity="0.03"/>
<path d="M158.39 177.58C158.392 170.398 156.264 163.376 152.275 157.404C148.286 151.431 142.615 146.775 135.98 144.026C129.345 141.276 122.043 140.557 114.999 141.957C107.954 143.358 101.484 146.816 96.4049 151.895C91.3263 156.974 87.8679 163.444 86.4672 170.489C85.0665 177.533 85.7864 184.835 88.5358 191.47C91.2853 198.105 95.9408 203.776 101.913 207.765C107.886 211.754 114.908 213.882 122.09 213.88C131.713 213.867 140.939 210.038 147.743 203.233C154.548 196.429 158.377 187.203 158.39 177.58ZM141.39 177.58C141.39 181.4 140.257 185.133 138.135 188.309C136.013 191.485 132.996 193.96 129.467 195.421C125.938 196.882 122.055 197.264 118.309 196.518C114.563 195.772 111.122 193.932 108.422 191.231C105.722 188.529 103.884 185.088 103.14 181.341C102.396 177.595 102.78 173.712 104.243 170.183C105.706 166.655 108.182 163.64 111.359 161.519C114.536 159.399 118.27 158.268 122.09 158.27C127.209 158.275 132.116 160.312 135.735 163.932C139.353 167.553 141.387 172.461 141.39 177.58Z" fill="black" fill-opacity="0.03"/>
<path d="M271.74 306C272.804 306.337 273.792 306.88 274.646 307.599C275.501 308.317 276.205 309.197 276.72 310.188C277.234 311.178 277.548 312.261 277.645 313.373C277.741 314.485 277.617 315.606 277.28 316.67C276.943 317.734 276.4 318.722 275.681 319.576C274.963 320.431 274.083 321.135 273.092 321.65C272.102 322.164 271.019 322.478 269.907 322.575C268.795 322.671 267.674 322.547 266.61 322.21C260.807 320.386 254.517 320.934 249.118 323.736C243.719 326.538 239.649 331.365 237.8 337.16C237.462 338.224 236.919 339.212 236.2 340.066C235.48 340.92 234.6 341.624 233.609 342.138C232.618 342.652 231.535 342.966 230.422 343.062C229.31 343.157 228.189 343.032 227.125 342.695C226.061 342.358 225.073 341.814 224.219 341.095C223.365 340.375 222.661 339.495 222.147 338.504C221.633 337.513 221.319 336.43 221.223 335.317C221.128 334.205 221.252 333.084 221.59 332.02C224.801 321.927 231.884 313.52 241.285 308.642C250.687 303.764 261.639 302.814 271.74 306Z" fill="black" fill-opacity="0.03"/>
<path d="M287.67 151.57C288.556 151.85 289.294 152.47 289.723 153.294C290.151 154.119 290.235 155.079 289.955 155.965C289.675 156.851 289.055 157.589 288.231 158.018C287.406 158.446 286.446 158.53 285.56 158.25C277.813 155.802 269.411 156.527 262.198 160.268C254.986 164.008 249.552 170.457 247.09 178.2C246.81 179.086 246.19 179.824 245.366 180.253C244.541 180.681 243.581 180.765 242.695 180.485C241.809 180.205 241.071 179.585 240.642 178.761C240.214 177.937 240.13 176.976 240.41 176.09C243.435 166.578 250.11 158.654 258.97 154.058C267.83 149.461 278.151 148.566 287.67 151.57Z" fill="black" fill-opacity="0.03"/>
<path d="M159.5 272.91C168.026 276.545 174.762 283.414 178.231 292.01C181.699 300.605 181.616 310.226 178 318.76C177.731 319.392 177.283 319.93 176.71 320.309C176.138 320.688 175.466 320.89 174.78 320.89C174.202 320.89 173.632 320.746 173.123 320.473C172.614 320.199 172.18 319.803 171.861 319.32C171.542 318.838 171.348 318.284 171.295 317.708C171.243 317.132 171.334 316.552 171.56 316.02C174.451 309.197 174.52 301.507 171.752 294.633C168.983 287.76 163.603 282.264 156.79 279.35C156.358 279.176 155.966 278.918 155.635 278.591C155.304 278.263 155.042 277.873 154.864 277.443C154.685 277.013 154.595 276.552 154.597 276.087C154.599 275.621 154.694 275.161 154.876 274.733C155.059 274.305 155.324 273.917 155.658 273.593C155.992 273.268 156.387 273.014 156.82 272.844C157.254 272.675 157.717 272.593 158.182 272.604C158.647 272.615 159.105 272.719 159.53 272.91H159.5Z" fill="black" fill-opacity="0.03"/>
<path d="M177 158.27C176.191 158.271 175.385 158.153 174.61 157.92C173.539 157.608 172.539 157.087 171.669 156.388C170.799 155.689 170.076 154.825 169.54 153.846C169.004 152.867 168.666 151.792 168.546 150.683C168.426 149.573 168.526 148.451 168.84 147.38C170.013 143.328 169.53 138.975 167.498 135.279C165.465 131.582 162.05 128.842 158 127.66C156.928 127.347 155.929 126.827 155.058 126.128C154.188 125.429 153.464 124.566 152.927 123.587C152.39 122.608 152.052 121.533 151.93 120.424C151.809 119.314 151.907 118.192 152.22 117.12C152.533 116.048 153.053 115.049 153.752 114.178C154.451 113.308 155.314 112.584 156.293 112.047C157.272 111.51 158.347 111.172 159.456 111.05C160.566 110.929 161.688 111.027 162.76 111.34C171.133 113.792 178.19 119.468 182.383 127.119C186.575 134.771 187.56 143.773 185.12 152.15C184.607 153.909 183.539 155.455 182.076 156.558C180.613 157.661 178.832 158.261 177 158.27Z" fill="black" fill-opacity="0.03"/>
</g>
<defs>
<clipPath id="clip0_55_403">
<rect width="440.94" height="474.82" fill="white"/>
</clipPath>
</defs>
</svg>
